<svg width="136" height="61" viewBox="0 0 136 61" fill="none" xmlns="http://www.w3.org/2000/svg">
    <path d="M135.498 27.1489C135.542 26.3216 134.907 25.6152 134.08 25.5709L120.599 24.85C119.772 24.8057 119.066 25.4405 119.021 26.2677C118.977 27.095 119.612 27.8015 120.439 27.8457L132.422 28.4865L131.781 40.4694C131.737 41.2967 132.372 42.0031 133.199 42.0474C134.026 42.0916 134.733 41.4569 134.777 40.6296L135.498 27.1489ZM2 1C0.505519 1.12855 0.505589 1.12937 0.505675 1.13035C0.505724 1.13092 0.505826 1.13209 0.505925 1.13322C0.506123 1.13548 0.506386 1.13845 0.506715 1.14213C0.507372 1.14947 0.508293 1.15963 0.509495 1.17256C0.511898 1.19841 0.515422 1.23535 0.520195 1.28305C0.529742 1.37845 0.544288 1.51693 0.564865 1.69595C0.606015 2.05395 0.671303 2.57424 0.768982 3.23646C0.964298 4.56062 1.28938 6.45401 1.81053 8.75343C2.85195 13.3484 4.68103 19.5859 7.83548 26.1497C14.1476 39.2842 25.8236 53.8197 47.1485 58.9583L47.8513 56.0417C27.6762 51.1803 16.6022 37.4658 10.5394 24.8503C7.50641 18.5391 5.74176 12.5266 4.73632 8.09032C4.23404 5.87412 3.92241 4.05657 3.73687 2.79869C3.64412 2.1699 3.58295 1.6814 3.54524 1.35337C3.52639 1.18937 3.51341 1.06552 3.50529 0.984342C3.50123 0.943757 3.49838 0.913846 3.49662 0.894923C3.49574 0.885462 3.49513 0.878748 3.49478 0.874822C3.49461 0.872859 3.49449 0.871593 3.49445 0.871028C3.49442 0.870746 3.49443 0.870851 3.49442 0.870708C3.49444 0.870988 3.49448 0.871445 2 1ZM47.1485 58.9583C68.4443 64.0898 90.4834 56.2682 107.024 47.3549C115.323 42.8825 122.308 38.0977 127.218 34.4318C129.674 32.598 131.613 31.042 132.942 29.9419C133.606 29.3917 134.118 28.9554 134.465 28.6552C134.639 28.505 134.772 28.3889 134.862 28.3095C134.907 28.2699 134.941 28.2394 134.964 28.2184C134.976 28.208 134.985 28.1999 134.992 28.1942C134.995 28.1914 134.997 28.1892 134.999 28.1876C135 28.1868 135.001 28.186 135.001 28.1856C135.002 28.185 135.002 28.1846 134 27.0688C132.997 25.953 132.998 25.9529 132.998 25.9529C132.997 25.9531 132.997 25.9533 132.997 25.9537C132.996 25.9545 132.994 25.956 132.992 25.9581C132.987 25.9622 132.98 25.9687 132.97 25.9777C132.95 25.9955 132.919 26.0229 132.877 26.0594C132.795 26.1324 132.669 26.2421 132.503 26.3856C132.171 26.6728 131.676 27.0953 131.029 27.6312C129.734 28.7031 127.834 30.2276 125.423 32.028C120.598 35.6305 113.739 40.3285 105.601 44.7139C89.2665 53.5161 68.0555 60.9102 47.8513 56.0417L47.1485 58.9583Z"
          fill="#F1F1F1"/>
</svg>
