<svg width="28" height="18" viewBox="0 0 28 18" fill="none" xmlns="http://www.w3.org/2000/svg">
<path fill-rule="evenodd" clip-rule="evenodd" d="M0 9.41555C0 9.1651 0.10535 8.92491 0.292874 8.74782C0.480399 8.57073 0.734737 8.47124 0.999936 8.47124H24.5844L18.2908 2.52963C18.1031 2.35231 17.9976 2.11182 17.9976 1.86105C17.9976 1.61029 18.1031 1.3698 18.2908 1.19248C18.4786 1.01516 18.7333 0.915548 18.9988 0.915548C19.2643 0.915548 19.519 1.01516 19.7067 1.19248L27.7062 8.74698C27.7994 8.83469 27.8732 8.9389 27.9236 9.05363C27.9741 9.16835 28 9.29134 28 9.41555C28 9.53976 27.9741 9.66275 27.9236 9.77747C27.8732 9.8922 27.7994 9.9964 27.7062 10.0841L19.7067 17.6386C19.519 17.8159 19.2643 17.9155 18.9988 17.9155C18.7333 17.9155 18.4786 17.8159 18.2908 17.6386C18.1031 17.4613 17.9976 17.2208 17.9976 16.97C17.9976 16.7193 18.1031 16.4788 18.2908 16.3015L24.5844 10.3599H0.999936C0.734737 10.3599 0.480399 10.2604 0.292874 10.0833C0.10535 9.90619 0 9.666 0 9.41555Z" fill="#1C1F2B"/>
</svg>
